<svg version="1.1" xmlns="http://www.w3.org/2000/svg" viewBox="0 0 2173.4642857142862 1228.035714285715" width="2173.4642857142862" height="1228.035714285715">
  <!-- svg-source:excalidraw -->
  
  <defs>
    <style>
      @font-face {
        font-family: "Virgil";
        src: url("https://excalidraw.com/Virgil.woff2");
      }
      @font-face {
        font-family: "Cascadia";
        src: url("https://excalidraw.com/Cascadia.woff2");
      }
    </style>
  </defs>
  <rect x="0" y="0" width="2173.4642857142862" height="1228.035714285715" fill="#ffffff"></rect><g stroke-linecap="round" transform="translate(10 519.1785714285713) rotate(0 249 83)"><path d="M-1.16 -0.15 C125.45 -1.72, 253.15 -4.48, 496.42 -0.49 M0.54 -0.13 C149.5 -1.01, 299.07 -1.79, 497.83 0.71 M498.88 -0.1 C494.07 37.56, 494.55 69.19, 494.92 169.74 M497.89 -1.7 C498.79 42.27, 498.62 88.71, 499.46 167.12 M497.8 165.13 C308.47 162.31, 116.63 163.12, 0.35 164.47 M497.87 165.63 C381.07 166.74, 266.28 167.3, -0.77 166.5 M0.83 167.87 C2.23 128.49, 0.96 80.13, 1.95 -2.16 M-0.88 167.64 C-4.49 118.52, -1.66 66.09, 0.03 1.82" stroke="#000000" stroke-width="2" fill="none"></path></g><g transform="translate(160 700.6785714285713) rotate(0 103 13)"><text x="0" y="19" font-family="Virgil, Segoe UI Emoji" font-size="20px" fill="#000000" text-anchor="start" style="white-space: pre;" direction="ltr">router.lan 192.168.0.1</text></g><g transform="translate(30 538.6785714285713) rotate(0 47 13)"><text x="0" y="19" font-family="Virgil, Segoe UI Emoji" font-size="20px" fill="#000000" text-anchor="start" style="white-space: pre;" direction="ltr">RouterOS</text></g><g stroke-linecap="round"><g transform="translate(510.4678663239074 570.6577337684889) rotate(0 142.28457729538127 -3.1926730435094584)"><path d="M2.12 -2.54 C49.63 -4.29, 237.62 -7.84, 284.74 -8.64 M-0.17 2.25 C46.95 0.6, 235.08 -5.14, 282.25 -6.32" stroke="#000000" stroke-width="2" fill="none"></path></g><g transform="translate(510.4678663239074 570.6577337684889) rotate(0 142.28457729538127 -3.1926730435094584)"><path d="M250.73 4.06 C258.83 0.57, 268.74 -3.52, 283.56 -10.07 M253.57 4.81 C264.69 1.63, 274.32 -4.07, 281.66 -7.86" stroke="#000000" stroke-width="2" fill="none"></path></g><g transform="translate(510.4678663239074 570.6577337684889) rotate(0 142.28457729538127 -3.1926730435094584)"><path d="M250.15 -16.46 C258.69 -14.01, 268.76 -12.16, 283.56 -10.07 M252.99 -15.7 C264.01 -11.4, 273.85 -9.61, 281.66 -7.86" stroke="#000000" stroke-width="2" fill="none"></path></g></g><g stroke-linecap="round" transform="translate(1805.9642857142862 561) rotate(0 178.75 41.875)"><path d="M0.46 0.46 C109.35 -3.66, 217.3 -2.78, 355.83 0.68 M-0.27 -0.13 C98.64 3.67, 199.07 3.92, 358.16 0.71 M353.59 3.18 C359.94 21.68, 356.39 39.33, 355.12 85.48 M357.13 1.81 C357.65 31.88, 359.6 64.79, 356.47 81.97 M359.39 81.84 C266.33 84.28, 175.89 87.87, -1.99 85.8 M358.31 84.69 C221.26 86.56, 83.8 85.1, -0.58 82.48 M-2.18 79.84 C4.12 60.59, 1.2 32.4, -1.52 -0.26 M-1.78 82.61 C-0.79 66.09, -0.66 46.26, -1.31 1.81" stroke="#000000" stroke-width="2" fill="none"></path></g><g transform="translate(1978.4642857142862 662.75) rotate(0 19 13)"><text x="0" y="19" font-family="Virgil, Segoe UI Emoji" font-size="20px" fill="#000000" text-anchor="start" style="white-space: pre;" direction="ltr">SAN</text></g><g transform="translate(1824.7142857142862 586.5) rotate(0 62.5 13)"><text x="0" y="19" font-family="Virgil, Segoe UI Emoji" font-size="20px" fill="#000000" text-anchor="start" style="white-space: pre;" direction="ltr">--TB cluster</text></g><g stroke-linecap="round" transform="translate(361.71428571428646 10) rotate(0 249.375 46.875)"><path d="M0.76 0.28 C130.64 -0.8, 260.07 -0.11, 500.06 1.52 M0.68 -0.08 C119.72 2.13, 238.72 2.62, 497.96 0.69 M494.83 0.02 C495.69 18.74, 500.18 37.41, 495.97 96.76 M499.56 -1.68 C498.49 28.88, 496.86 57.44, 498.02 94.34 M497.2 93.8 C306.06 92.74, 114.49 95.27, 0.2 92.44 M498.45 94.37 C328.78 96.9, 157.4 96.82, -0.39 93.36 M0.77 95.18 C3.91 62.93, 0.08 28.72, -0.52 2.85 M0.96 93.24 C0.25 70.58, 3.28 47.63, 1.33 0.8" stroke="#000000" stroke-width="2" fill="none"></path></g><g transform="translate(490.71428571428635 119.75) rotate(0 127.99999999999994 13)"><text x="0" y="19" font-family="Virgil, Segoe UI Emoji" font-size="20px" fill="#000000" text-anchor="start" style="white-space: pre;" direction="ltr">Noiseless Router FRA1-DE</text></g><g stroke-linecap="round"><g transform="translate(468.91597456713737 111.52202072538859) rotate(0 -55.34320293713591 201.25016190715795)"><path d="M-1.19 2.03 C-19.31 69.25, -93.45 335.59, -111.32 401.83 M3.36 0.67 C-14.97 67.13, -95.29 330.39, -114.04 397.23" stroke="#000000" stroke-width="2" fill="none"></path></g><g transform="translate(468.91597456713737 111.52202072538859) rotate(0 -55.34320293713591 201.25016190715795)"><path d="M-113.03 366.02 C-114.78 376.34, -117.75 380.3, -117.79 393.44 M-115.01 367.83 C-116.13 378.64, -113.1 387.39, -112.34 395.26" stroke="#000000" stroke-width="2" fill="none"></path></g><g transform="translate(468.91597456713737 111.52202072538859) rotate(0 -55.34320293713591 201.25016190715795)"><path d="M-93.34 371.81 C-99.09 380.77, -106.11 383.53, -117.79 393.44 M-95.33 373.62 C-103.67 382.47, -107.82 389.11, -112.34 395.26" stroke="#000000" stroke-width="2" fill="none"></path></g></g><g transform="translate(373.71428571428635 30.5) rotate(0 89.5 13)"><text x="0" y="19" font-family="Virgil, Segoe UI Emoji" font-size="20px" fill="#000000" text-anchor="start" style="white-space: pre;" direction="ltr">BGP Routing (DE)</text></g><g stroke-linecap="round" transform="translate(10.488095238095923 33.86904761904742) rotate(0 120.00000000000003 48.33333333333334)"><path d="M-2.49 -0.86 C56.94 1, 111.43 2.57, 242.7 -3.16 M-0.46 0.92 C54.45 2.03, 107.81 1.26, 239.28 1.48 M236.25 0.24 C238.21 26.67, 239.88 60.01, 240.03 95.88 M241.32 -0.36 C242.4 29.31, 243.26 59.91, 239.09 98.3 M239.94 93.84 C148.06 93.39, 54 95.22, -1.96 99.9 M239.66 96.01 C182.6 94.87, 124.09 95.43, 0.49 96.63 M-1.56 98.78 C-0.64 61.76, -1.03 29.83, 1.32 0.6 M-1.97 95.43 C0.51 62.99, -0.41 28.19, 1.01 -0.98" stroke="#000000" stroke-width="2" fill="none"></path></g><g transform="translate(27.15476190476261 50.03571428571411) rotate(0 88 26)"><text x="0" y="19" font-family="Virgil, Segoe UI Emoji" font-size="20px" fill="#000000" text-anchor="start" style="white-space: pre;" direction="ltr">Noiseless Systems</text><text x="0" y="45" font-family="Virgil, Segoe UI Emoji" font-size="20px" fill="#000000" text-anchor="start" style="white-space: pre;" direction="ltr">ISP AS211696</text></g><g stroke-linecap="round"><g transform="translate(265.488095238096 69.82224364569521) rotate(0 44.22776174930232 1.5580688428657368)"><path d="M-1.42 -2.04 C13.87 -1.44, 74.93 4.74, 89.87 5.15 M3.01 3.03 C18.2 2.7, 74.43 1.36, 88.29 1.2" stroke="#000000" stroke-width="2" fill="none"></path></g><g transform="translate(265.488095238096 69.82224364569521) rotate(0 44.22776174930232 1.5580688428657368)"><path d="M57.39 13.71 C69.51 9.1, 69.33 8.79, 90.65 1.85 M60.31 12.64 C70.59 10.17, 77.96 3.73, 88.8 1.38" stroke="#000000" stroke-width="2" fill="none"></path></g><g transform="translate(265.488095238096 69.82224364569521) rotate(0 44.22776174930232 1.5580688428657368)"><path d="M57 -6.81 C69.45 -6.6, 69.36 -2.11, 90.65 1.85 M59.92 -7.88 C70.33 -4.03, 77.81 -4.15, 88.8 1.38" stroke="#000000" stroke-width="2" fill="none"></path></g></g><g transform="translate(65.3174603174599 801.0753968253969) rotate(0 119 13)"><text x="0" y="19" font-family="Virgil, Segoe UI Emoji" font-size="20px" fill="#000000" text-anchor="start" style="white-space: pre;" direction="ltr">2021+ extension project</text></g><g transform="translate(745.8069985569978 427.8906926406949) rotate(0 57 13)"><text x="0" y="19" font-family="Virgil, Segoe UI Emoji" font-size="20px" fill="#000000" text-anchor="start" style="white-space: pre;" direction="ltr">HEL1 Server</text></g><g transform="translate(647 60.67857142857139) rotate(0 95 13)"><text x="0" y="19" font-family="Virgil, Segoe UI Emoji" font-size="20px" fill="#000000" text-anchor="start" style="white-space: pre;" direction="ltr">2001:67c:2724::/48</text></g><g transform="translate(638 27.678571428571388) rotate(0 100.5 13)"><text x="0" y="19" font-family="Virgil, Segoe UI Emoji" font-size="20px" fill="#000000" text-anchor="start" style="white-space: pre;" direction="ltr">2a0e:8f02:f01f::/48</text></g><g stroke-linecap="round" transform="translate(742.1706349206347 467.8452380952404) rotate(0 491.66666666666674 134.16666666666669)"><path d="M0.14 -0.96 C391.65 0.62, 786.08 0.86, 983.77 0.67 M982.48 2.9 C980.66 78.38, 980.5 163.72, 981.6 269.82 M983.39 267.48 C636.42 261.65, 290.83 262.61, -1.38 269.51 M-0.26 268.11 C-1.01 184.52, 1.35 96.04, 0.84 0.06" stroke="#000000" stroke-width="2.5" fill="none" stroke-dasharray="8 10"></path></g><g transform="translate(1124 611.6785714285713) rotate(0 25.5 13)"><text x="0" y="19" font-family="Virgil, Segoe UI Emoji" font-size="20px" fill="#000000" text-anchor="start" style="white-space: pre;" direction="ltr">::beef</text></g><g stroke-linecap="round" transform="translate(800 526.1785714285713) rotate(0 193.5 60)"><path d="M0.63 -1.18 C98.2 1.64, 200.38 0.72, 389.12 -2.09 M-0.43 -0.58 C103.72 -0.88, 206.66 -0.47, 387.45 0.11 M384.48 1.66 C388.25 38.71, 390.36 77.6, 390.18 122.05 M387.34 0.56 C382.92 46.41, 384.56 95.08, 386.26 121.85 M388.33 120.46 C301.48 119.28, 216.4 117.6, 0.65 121.92 M387.66 119.78 C279.28 115.65, 172.78 117.73, 0.49 119.51 M2.16 120.7 C1 87.09, -1.05 56.29, -2.11 -3.11 M0.96 118.25 C2.98 83.77, 1.35 45.38, 0.03 0.92" stroke="#000000" stroke-width="2" fill="none"></path></g><g transform="translate(892 659.6785714285713) rotate(0 118 13)"><text x="0" y="19" font-family="Virgil, Segoe UI Emoji" font-size="20px" fill="#000000" text-anchor="start" style="white-space: pre;" direction="ltr">Entrypoint 192.168.0.106</text></g><g transform="translate(817 543.6785714285713) rotate(0 80 39)"><text x="0" y="19" font-family="Virgil, Segoe UI Emoji" font-size="20px" fill="#000000" text-anchor="start" style="white-space: pre;" direction="ltr">Reverse proxy</text><text x="0" y="45" font-family="Virgil, Segoe UI Emoji" font-size="20px" fill="#000000" text-anchor="start" style="white-space: pre;" direction="ltr">SSL management</text><text x="0" y="71" font-family="Virgil, Segoe UI Emoji" font-size="20px" fill="#000000" text-anchor="start" style="white-space: pre;" direction="ltr">Cache server</text></g><g stroke-linecap="round" transform="translate(1408 531.1785714285713) rotate(0 124.5 63)"><path d="M0.16 1.64 C68.93 -1.32, 143.93 -0.87, 247.16 1.93 M1.58 -1.17 C87.66 1.02, 171.93 2.12, 248.45 0.54 M251.28 -0.4 C248.89 44.34, 249.5 98.82, 250.4 129.71 M248.3 -1.59 C249.26 29.39, 250.32 56.87, 248.24 126.67 M249.61 124.35 C184.59 125.15, 125.32 129.26, 2.03 125.49 M247.43 126.03 C192.62 126.88, 134.32 124.26, -1.37 124.77 M-1.91 123.71 C0.49 97.09, -1.37 73.05, 0.57 -4 M1.45 124.72 C-1.74 94.32, -1 61.96, 0.22 -0.16" stroke="#000000" stroke-width="2" fill="none"></path></g><g stroke-linecap="round"><g transform="translate(1402.2727272727273 551.1841589519993) rotate(0 -103.61009507753022 12.39606477187668)"><path d="M0.45 -2.18 C-33.65 1.85, -171.89 19.22, -206.62 23.52 M-2.75 2.81 C-36.85 7.35, -173.26 23.01, -207.67 26.97" stroke="#000000" stroke-width="2" fill="none"></path></g><g transform="translate(1402.2727272727273 551.1841589519993) rotate(0 -103.61009507753022 12.39606477187668)"><path d="M-183.95 16.67 C-187.54 17.99, -193.58 17.78, -207.27 30.9 M-179.22 13.28 C-188.69 16.65, -194.99 23.05, -206.03 24.98" stroke="#000000" stroke-width="2" fill="none"></path></g><g transform="translate(1402.2727272727273 551.1841589519993) rotate(0 -103.61009507753022 12.39606477187668)"><path d="M-181.61 37.06 C-185.63 33.71, -192.22 28.81, -207.27 30.9 M-176.87 33.66 C-187.37 31.04, -194.37 31.41, -206.03 24.98" stroke="#000000" stroke-width="2" fill="none"></path></g></g><g transform="translate(1488 670.6785714285713) rotate(0 53.5 13)"><text x="0" y="19" font-family="Virgil, Segoe UI Emoji" font-size="20px" fill="#000000" text-anchor="start" style="white-space: pre;" direction="ltr">VM Cluster</text></g><g transform="translate(1422 537.6785714285713) rotate(0 72.5 39)"><text x="0" y="19" font-family="Virgil, Segoe UI Emoji" font-size="20px" fill="#000000" text-anchor="start" style="white-space: pre;" direction="ltr">Matrix servers</text><text x="0" y="45" font-family="Virgil, Segoe UI Emoji" font-size="20px" fill="#000000" text-anchor="start" style="white-space: pre;" direction="ltr">Game servers</text><text x="0" y="71" font-family="Virgil, Segoe UI Emoji" font-size="20px" fill="#000000" text-anchor="start" style="white-space: pre;" direction="ltr">Services</text></g><g stroke-linecap="round"><g transform="translate(1673.4642857142862 589.75) rotate(0 58.849171326681926 1.4048519462347002)"><path d="M-2.03 -0.88 C18.25 -0.87, 99.99 2.11, 119.73 2.83 M2.06 -3.83 C22.23 -2.12, 98.04 6.26, 118.03 6.64" stroke="#000000" stroke-width="2" fill="none"></path></g><g transform="translate(1673.4642857142862 589.75) rotate(0 58.849171326681926 1.4048519462347002)"><path d="M87.93 16.31 C96.13 10.09, 103.66 12.06, 116.85 8.8 M90.62 13.28 C94.14 13.18, 102.11 9.84, 117.82 6" stroke="#000000" stroke-width="2" fill="none"></path></g><g transform="translate(1673.4642857142862 589.75) rotate(0 58.849171326681926 1.4048519462347002)"><path d="M89.36 -4.16 C97.64 -5.69, 104.84 0.99, 116.85 8.8 M92.05 -7.19 C95.51 -2.67, 103.15 -1.36, 117.82 6" stroke="#000000" stroke-width="2" fill="none"></path></g></g><g stroke-linecap="round" transform="translate(63.571428571429124 838.0357142857144) rotate(0 633.3333333333338 190.00000000000028)"><path d="M0.17 0.96 C287.66 2.51, 577.59 0.52, 1265.88 0.17 M1265.87 -1.01 C1262.01 93.85, 1264.7 185.84, 1266.86 379.71 M1267.1 379.84 C828.05 373.56, 388.07 373.93, -0.52 380.34 M-0.87 379.33 C3.73 303.22, 3.48 227.06, 0.23 1.48" stroke="#000000" stroke-width="2.5" fill="none" stroke-dasharray="1.5 8"></path></g><g stroke-linecap="round" transform="translate(458.8888888888896 885.0198412698412) rotate(0 154.28571428571422 52.85714285714289)"><path d="M0.31 2.39 C98.72 3.16, 199.62 4, 311.16 2.57 M1.13 -0.56 C67.97 -1.06, 132.3 0.17, 307.62 -0.74 M309.55 2.59 C313.15 44.41, 308.14 83.7, 308.38 108.7 M307.57 0.08 C308.37 21.28, 306.13 41.69, 310.34 104.02 M305.92 107.23 C191.07 100.26, 70.13 99.66, 2.04 107.24 M308.66 104.85 C243.81 107.55, 179.58 109.28, -1.06 104.96 M3.19 106.16 C3.17 73.62, 2.46 38.53, 0.79 0.03 M-0.21 106.86 C2.29 64.58, 0.77 23.04, 1.59 -1.53" stroke="#000000" stroke-width="2" fill="none"></path></g><g transform="translate(486.0317460317465 911.2341269841268) rotate(0 127 26)"><text x="0" y="19" font-family="Virgil, Segoe UI Emoji" font-size="20px" fill="#000000" text-anchor="start" style="white-space: pre;" direction="ltr">Mesh network management</text><text x="0" y="45" font-family="Virgil, Segoe UI Emoji" font-size="20px" fill="#000000" text-anchor="start" style="white-space: pre;" direction="ltr">Interconnections</text></g><g transform="translate(467.46031746031804 1004.0912698412696) rotate(0 70 13)"><text x="0" y="19" font-family="Virgil, Segoe UI Emoji" font-size="20px" fill="#000000" text-anchor="start" style="white-space: pre;" direction="ltr">LoRa gateway</text></g><g stroke-linecap="round" transform="translate(116.9047619047625 886.8690476190477) rotate(0 110.83333333333331 38.33333333333337)"><path d="M0.05 2.86 C47.64 3.26, 88.79 0.91, 223.3 3.41 M-0.12 1.21 C86.48 5.2, 171.53 2.06, 222.97 -1.49 M222.86 0.64 C223.9 20.64, 220.02 38.29, 221.72 73.12 M222.19 -0.66 C222.96 29.53, 223.32 59.76, 219.77 75.84 M221.8 79.19 C150.16 77.62, 71.18 82, -0.24 77.9 M221.01 76.44 C163.77 79.33, 106.24 77.95, -1.13 75.52 M-1.14 80.38 C1.38 53.73, 5.23 23.45, 2.02 -0.93 M-1.18 75.49 C1.51 57.77, 2.3 38.69, -1.07 -1.27" stroke="#000000" stroke-width="2" fill="none"></path></g><g transform="translate(141.9047619047625 919.0357142857144) rotate(0 86 13)"><text x="0" y="19" font-family="Virgil, Segoe UI Emoji" font-size="20px" fill="#000000" text-anchor="start" style="white-space: pre;" direction="ltr">BGP Routing (FI)</text></g><g transform="translate(102.23809523809598 980.3690476190477) rotate(0 123.5 13)"><text x="0" y="19" font-family="Virgil, Segoe UI Emoji" font-size="20px" fill="#000000" text-anchor="start" style="white-space: pre;" direction="ltr">Noiseless Router HEL1-FI</text></g><g stroke-linecap="round" transform="translate(118.90142021720794 1060.303277132227) rotate(0 101.66666666666652 37.5)"><path d="M0.07 0.99 C69.43 -5.09, 130.23 -3.86, 205.25 1.07 M1.36 0.32 C46.82 -3.75, 88.84 -2.11, 204.96 -1.07 M199.63 -1.09 C202.29 23.45, 205.89 47.41, 199.39 75.6 M204.28 1 C203.49 23.36, 204.3 43.44, 201.39 74.96 M201.24 76.93 C122.18 75.39, 48.11 73.34, 0.14 72.01 M203.07 73.85 C163.11 80.14, 119.36 78.77, 1.36 74.77 M-0.52 77.64 C0.66 51.94, -0.07 30.69, 2.11 -0.56 M-1.05 73.63 C1.56 55.56, -0.99 34.83, 0.66 1.73" stroke="#000000" stroke-width="2" fill="none"></path></g><g transform="translate(133.97319055213484 1070.7873281689099) rotate(0 67 13)"><text x="0" y="19" font-family="Virgil, Segoe UI Emoji" font-size="20px" fill="#000000" text-anchor="start" style="white-space: pre;" direction="ltr">Game servers</text></g><g transform="translate(149.2363484468715 1144.4715386952257) rotate(0 61 13)"><text x="0" y="19" font-family="Virgil, Segoe UI Emoji" font-size="20px" fill="#000000" text-anchor="start" style="white-space: pre;" direction="ltr">HEL2 Server</text></g></svg>